<svg xmlns:inkscape="http://www.inkscape.org/namespaces/inkscape" xmlns:sodipodi="http://sodipodi.sourceforge.net/DTD/sodipodi-0.dtd" xmlns:xlink="http://www.w3.org/1999/xlink" xmlns="http://www.w3.org/2000/svg" xmlns:svg="http://www.w3.org/2000/svg" width="114.3012mm" height="19.627888mm" viewBox="0 0 114.3012 19.627888" version="1.1" id="svg1" inkscape:version="1.3 (0e150ed6c4, 2023-07-21)">
  <sodipodi:namedview id="namedview1" pagecolor="#ffffff" bordercolor="#ffffff" borderopacity="0.25" inkscape:showpageshadow="2" inkscape:pageopacity="0.0" inkscape:pagecheckerboard="0" inkscape:deskcolor="#d1d1d1" inkscape:document-units="mm" inkscape:zoom="1.3380612" inkscape:cx="400.57959" inkscape:cy="550.42327" inkscape:window-width="2880" inkscape:window-height="1526" inkscape:window-x="2869" inkscape:window-y="-11" inkscape:window-maximized="1" inkscape:current-layer="layer1" fill="#ffffff"/>
  <defs id="defs1" fill="#ffffff">
    <linearGradient id="linearGradient678" inkscape:collect="always" fill="#ffffff">
      <stop style="stop-color:#ffffff;stop-opacity:0.40000001;" offset="0" id="stop678" fill="#ffffff"/>
      <stop style="stop-color:#ffffff;stop-opacity:1;" offset="0.5" id="stop677" fill="#ffffff"/>
    </linearGradient>
    <linearGradient id="linearGradient572" inkscape:collect="always" fill="#ffffff">
      <stop style="stop-color:#ffffff;stop-opacity:1;" offset="0" id="stop572" fill="#ffffff"/>
      <stop style="stop-color:#ffffff;stop-opacity:0;" offset="1" id="stop573" fill="#ffffff"/>
    </linearGradient>
    <clipPath clipPathUnits="userSpaceOnUse" id="clipPath680-6-9-0" fill="#ffffff">
      <path style="opacity:0.97479;fill:none;stroke:#ff0000;stroke-width:0.2;stroke-linecap:round;stroke-dasharray:none" d="m 132.07145,193.27061 c 0,0 -4.74865,1.60518 -8.22653,-1.20388 -1.73894,-1.40453 -2.33137,-1.9118 -3.10823,-3.86204 -0.80885,-2.03051 -0.89999,-2.76192 -0.50342,-4.89956 0.38687,-2.08534 0.57056,-2.625 1.73894,-4.07982 0.87743,-1.09253 1.99202,-1.9389 3.25723,-2.50334 1.45628,-0.64966 3.11211,-0.92581 4.83554,-0.7739 2.74337,0.24182 5.28371,2.60841 5.28371,2.60841 0,0 2.28119,2.55603 2.54153,4.81554 0.21658,1.87963 0.26753,4.28047 -0.46818,7.35706 -0.6128,2.56262 -1.71372,4.7687 -2.67529,6.28695 -0.92421,1.45926 -2.11557,2.67046 -3.94606,3.34412 -2.31608,0.85236 -3.411,0.0669 -3.411,0.0669 0,0 1.49826,-0.41128 3.34412,-2.07334 1.94445,-1.75084 1.42592,-4.89943 1.33764,-5.08307 z" id="path680-3-6-8" sodipodi:nodetypes="csssssscsssscscc"/>
    </clipPath>
    <radialGradient inkscape:collect="always" xlink:href="#linearGradient678" id="radialGradient610-4-6-1-2-8" cx="122.34656" cy="179.317" fx="122.34656" fy="179.317" r="1.4483449" gradientTransform="matrix(1,0,0,1.0000035,13.181594,15.717193)" gradientUnits="userSpaceOnUse" fill="#ffffff"/>
    <radialGradient inkscape:collect="always" xlink:href="#linearGradient678" id="radialGradient630-9-2-8-6" cx="130.86082" cy="189.23116" fx="130.86082" fy="189.23116" r="1.72677" gradientTransform="matrix(1,0,0,0.9999971,0,5.4793446e-4)" gradientUnits="userSpaceOnUse" fill="#ffffff"/>
    <radialGradient inkscape:collect="always" xlink:href="#linearGradient678" id="radialGradient625-98-3-1-2" cx="133.35986" cy="179.87953" fx="133.35986" fy="179.87953" r="0.95559502" gradientUnits="userSpaceOnUse" fill="#ffffff"/>
    <radialGradient inkscape:collect="always" xlink:href="#linearGradient678" id="radialGradient625-8-1-2-8-1" cx="133.35986" cy="179.87953" fx="133.35986" fy="179.87953" r="0.95559502" gradientUnits="userSpaceOnUse" gradientTransform="translate(-1.082408,13.856997)" fill="#ffffff"/>
    <radialGradient inkscape:collect="always" xlink:href="#linearGradient678" id="radialGradient610-9-4-0-93-3" cx="122.34656" cy="179.317" fx="122.34656" fy="179.317" r="1.4483449" gradientTransform="matrix(1,0,0,1.0000035,3.3940757,11.90195)" gradientUnits="userSpaceOnUse" fill="#ffffff"/>
    <radialGradient inkscape:collect="always" xlink:href="#linearGradient678" id="radialGradient614-9-2-3-7" cx="127.32431" cy="178.35497" fx="127.32431" fy="178.35497" r="1.726765" gradientUnits="userSpaceOnUse" fill="#ffffff"/>
    <radialGradient inkscape:collect="always" xlink:href="#linearGradient678" id="radialGradient664-6-9-8-8" cx="136.70396" cy="180.0791" fx="136.70396" fy="180.0791" r="1.726765" gradientUnits="userSpaceOnUse" fill="#ffffff"/>
    <radialGradient inkscape:collect="always" xlink:href="#linearGradient678" id="radialGradient610-1-1-3-4" cx="122.34656" cy="179.317" fx="122.34656" fy="179.317" r="1.4483449" gradientTransform="matrix(1,0,0,1.0000035,0,-6.1904106e-4)" gradientUnits="userSpaceOnUse" fill="#ffffff"/>
    <radialGradient inkscape:collect="always" xlink:href="#linearGradient678" id="radialGradient609-3-1-3-6" cx="132.1492" cy="177.11629" fx="132.1492" fy="177.11629" r="1.44835" gradientUnits="userSpaceOnUse" fill="#ffffff"/>
    <radialGradient inkscape:collect="always" xlink:href="#linearGradient678" id="radialGradient608-3-8-0-4" cx="136.3997" cy="188.37555" fx="136.3997" fy="188.37555" r="1.726765" gradientUnits="userSpaceOnUse" fill="#ffffff"/>
    <radialGradient inkscape:collect="always" xlink:href="#linearGradient572" id="radialGradient604-9-8-0-3" cx="132.84061" cy="190.82939" fx="132.84061" fy="190.82939" r="1.05586" gradientTransform="matrix(1,0,0,0.9049874,0,18.131196)" gradientUnits="userSpaceOnUse" fill="#ffffff"/>
    <radialGradient inkscape:collect="always" xlink:href="#linearGradient572" id="radialGradient603-3-9-27-7" cx="128.14214" cy="190.32475" fx="128.14214" fy="190.32475" r="1.4342192" gradientTransform="matrix(1,0,0,0.45074857,0,104.53615)" gradientUnits="userSpaceOnUse" fill="#ffffff"/>
    <radialGradient inkscape:collect="always" xlink:href="#linearGradient572" id="radialGradient602-0-7-2-1" cx="133.4091" cy="192.90276" fx="133.4091" fy="192.90276" r="0.63409001" gradientTransform="matrix(1,0,0,0.84178902,0,30.519333)" gradientUnits="userSpaceOnUse" fill="#ffffff"/>
    <radialGradient inkscape:collect="always" xlink:href="#linearGradient572" id="radialGradient601-1-8-59-8" cx="136.00079" cy="191.78249" fx="136.00079" fy="191.78249" r="0.53556502" gradientTransform="matrix(1,0,0,3.9870511,0,-572.86404)" gradientUnits="userSpaceOnUse" fill="#ffffff"/>
    <radialGradient inkscape:collect="always" xlink:href="#linearGradient572" id="radialGradient600-4-7-6-6" cx="135.4323" cy="190.66219" fx="135.4323" fy="190.66219" r="0.80177999" gradientTransform="matrix(1,0,0,1.3962309,0,-75.546249)" gradientUnits="userSpaceOnUse" fill="#ffffff"/>
    <radialGradient inkscape:collect="always" xlink:href="#linearGradient572" id="radialGradient599-8-6-4-7" cx="132.17178" cy="181.4157" fx="132.17178" fy="181.4157" r="1.486945" gradientTransform="matrix(1,0,0,0.76385811,0,42.839845)" gradientUnits="userSpaceOnUse" fill="#ffffff"/>
    <radialGradient inkscape:collect="always" xlink:href="#linearGradient572" id="radialGradient598-9-9-11-8" cx="132.60652" cy="186.08073" fx="132.60652" fy="186.08073" r="1.219795" gradientTransform="matrix(1,0,0,1.7128001,0,-132.63837)" gradientUnits="userSpaceOnUse" fill="#ffffff"/>
    <radialGradient inkscape:collect="always" xlink:href="#linearGradient572" id="radialGradient597-0-3-4-2" cx="129.14534" cy="183.72314" fx="129.14534" fy="183.72314" r="1.470605" gradientTransform="matrix(1,0,0,2.8646577,0,-342.58078)" gradientUnits="userSpaceOnUse" fill="#ffffff"/>
    <radialGradient inkscape:collect="always" xlink:href="#linearGradient572" id="radialGradient596-0-2-7-3" cx="126.21925" cy="183.95723" fx="126.21925" fy="183.95723" r="0.684735" gradientTransform="matrix(1,0,0,0.92673808,0,13.47706)" gradientUnits="userSpaceOnUse" fill="#ffffff"/>
    <radialGradient inkscape:collect="always" xlink:href="#linearGradient572" id="radialGradient595-7-2-7-2" cx="122.97545" cy="188.90652" fx="122.97545" fy="188.90652" r="2.2095499" gradientTransform="matrix(1,0,0,0.78054581,0,41.456328)" gradientUnits="userSpaceOnUse" fill="#ffffff"/>
    <radialGradient inkscape:collect="always" xlink:href="#linearGradient572" id="radialGradient594-2-5-6-8" cx="122.44039" cy="184.45885" fx="122.44039" fy="184.45885" r="1.44075" gradientTransform="matrix(1,0,0,0.36170397,0,117.73935)" gradientUnits="userSpaceOnUse" fill="#ffffff"/>
    <radialGradient inkscape:collect="always" xlink:href="#linearGradient572" id="radialGradient593-0-6-54-7" cx="123.54394" cy="182.28516" fx="123.54394" fy="182.28516" r="0.95226502" gradientTransform="matrix(1,0,0,2.1764372,0,-214.44705)" gradientUnits="userSpaceOnUse" fill="#ffffff"/>
    <radialGradient inkscape:collect="always" xlink:href="#linearGradient572" id="radialGradient592-5-3-7-1" cx="124.68095" cy="178.72368" fx="124.68095" fy="178.72368" r="1.42044" gradientTransform="matrix(1,0,0,0.31726085,0,122.02165)" gradientUnits="userSpaceOnUse" fill="#ffffff"/>
    <radialGradient inkscape:collect="always" xlink:href="#linearGradient572" id="radialGradient591-9-1-3-0" cx="129.93121" cy="177.67029" fx="129.93121" fy="177.67029" r="1.2255501" gradientTransform="matrix(1,0,0,0.38605116,0,109.08047)" gradientUnits="userSpaceOnUse" fill="#ffffff"/>
    <radialGradient inkscape:collect="always" xlink:href="#linearGradient572" id="radialGradient590-9-0-3-1" cx="125.39993" cy="176.70049" fx="125.39993" fy="176.70049" r="1.03587" gradientTransform="matrix(1,0,0,0.80629809,0,34.227223)" gradientUnits="userSpaceOnUse" fill="#ffffff"/>
    <radialGradient inkscape:collect="always" xlink:href="#linearGradient572" id="radialGradient589-0-5-9-1" cx="127.42312" cy="175.73068" fx="127.42312" fy="175.73068" r="0.31688499" gradientTransform="matrix(1,0,0,4.3242186,0,-584.16722)" gradientUnits="userSpaceOnUse" fill="#ffffff"/>
    <radialGradient inkscape:collect="always" xlink:href="#linearGradient572" id="radialGradient588-7-4-2-8" cx="130.11514" cy="191.21397" fx="130.11514" fy="191.21397" r="0.43393001" gradientTransform="matrix(1,0,0,1.8477174,0,-162.0954)" gradientUnits="userSpaceOnUse" fill="#ffffff"/>
    <radialGradient inkscape:collect="always" xlink:href="#linearGradient572" id="radialGradient587-4-0-2-1" cx="132.87404" cy="178.67352" fx="132.87404" fy="178.67352" r="0.45065001" gradientTransform="matrix(1,0,0,1.5565406,0,-99.439057)" gradientUnits="userSpaceOnUse" fill="#ffffff"/>
    <radialGradient inkscape:collect="always" xlink:href="#linearGradient572" id="radialGradient586-2-1-0-3" cx="131.03477" cy="178.79057" fx="131.03477" fy="178.79057" r="0.65129501" gradientTransform="matrix(1,0,0,1.4107662,0,-73.441129)" gradientUnits="userSpaceOnUse" fill="#ffffff"/>
    <radialGradient inkscape:collect="always" xlink:href="#linearGradient572" id="radialGradient585-3-2-7-4" cx="135.21492" cy="186.0473" fx="135.21492" fy="186.0473" r="1.35356" gradientTransform="matrix(1,0,0,0.85176128,0,27.579413)" gradientUnits="userSpaceOnUse" fill="#ffffff"/>
    <radialGradient inkscape:collect="always" xlink:href="#linearGradient572" id="radialGradient584-0-0-6-7" cx="135.36542" cy="185.61256" fx="135.36542" fy="185.61256" r="0.86865997" gradientTransform="matrix(1,0,0,1.8276944,0,-153.63048)" gradientUnits="userSpaceOnUse" fill="#ffffff"/>
    <radialGradient inkscape:collect="always" xlink:href="#linearGradient572" id="radialGradient583-2-5-4-2" cx="126.05204" cy="189.34126" fx="126.05204" fy="189.34126" r="0.31688499" gradientTransform="matrix(1,0,0,2.7412468,0,-329.68987)" gradientUnits="userSpaceOnUse" fill="#ffffff"/>
    <radialGradient inkscape:collect="always" xlink:href="#linearGradient572" id="radialGradient582-9-7-1-7" cx="124.24621" cy="186.79973" fx="124.24621" fy="186.79973" r="0.41720948" gradientTransform="matrix(1,0,0,1.5209973,0,-97.322144)" gradientUnits="userSpaceOnUse" fill="#ffffff"/>
    <radialGradient inkscape:collect="always" xlink:href="#linearGradient572" id="radialGradient581-8-5-1-6" cx="121.43715" cy="188.75603" fx="121.43715" fy="188.75603" r="0.8519395" gradientTransform="matrix(1,0,0,1.74581,0,-140.77614)" gradientUnits="userSpaceOnUse" fill="#ffffff"/>
    <radialGradient inkscape:collect="always" xlink:href="#linearGradient572" id="radialGradient580-5-8-9-5" cx="130.83414" cy="184.82671" fx="130.83414" fy="184.82671" r="2.5574446" gradientTransform="matrix(1,0,0,0.48349612,0,95.463705)" gradientUnits="userSpaceOnUse" fill="#ffffff"/>
    <radialGradient inkscape:collect="always" xlink:href="#linearGradient572" id="radialGradient579-4-8-7-7" cx="134.51266" cy="178.35582" fx="134.51266" fy="178.35582" r="1.3201195" gradientTransform="matrix(1,0,0,0.74667824,0,45.181412)" gradientUnits="userSpaceOnUse" fill="#ffffff"/>
    <radialGradient inkscape:collect="always" xlink:href="#linearGradient572" id="radialGradient578-9-2-1-8" cx="137.15451" cy="182.36877" fx="137.15451" fy="182.36877" r="0.38376448" gradientTransform="matrix(1,0,0,2.8299374,0,-333.72343)" gradientUnits="userSpaceOnUse" fill="#ffffff"/>
    <radialGradient inkscape:collect="always" xlink:href="#linearGradient572" id="radialGradient577-1-3-8-3" cx="133.34222" cy="197.33371" fx="133.34222" fy="197.33371" r="0.38376448" gradientTransform="matrix(1,0,0,1.5664021,0,-111.77022)" gradientUnits="userSpaceOnUse" fill="#ffffff"/>
    <radialGradient inkscape:collect="always" xlink:href="#linearGradient572" id="radialGradient576-5-0-7-9" cx="134.01105" cy="195.72855" fx="134.01105" fy="195.72855" r="0.68473446" gradientTransform="matrix(1,0,0,0.63371204,0,71.693006)" gradientUnits="userSpaceOnUse" fill="#ffffff"/>
    <radialGradient inkscape:collect="always" xlink:href="#linearGradient572" id="radialGradient575-2-0-8-0" cx="131.97113" cy="197.19995" fx="131.97113" fy="197.19995" r="0.65129447" gradientTransform="matrix(1,0,0,1.1283598,0,-25.312536)" gradientUnits="userSpaceOnUse" fill="#ffffff"/>
    <radialGradient inkscape:collect="always" xlink:href="#linearGradient572" id="radialGradient574-5-4-0-2" cx="129.12863" cy="200.009" fx="129.12863" fy="200.009" r="0.51752949" gradientTransform="matrix(1,0,0,0.90307799,0,19.385276)" gradientUnits="userSpaceOnUse" fill="#ffffff"/>
    <radialGradient inkscape:collect="always" xlink:href="#linearGradient572" id="radialGradient573-6-1-4-9" cx="126.47005" cy="181.90059" fx="126.47005" fy="181.90059" r="0.73489946" gradientTransform="matrix(1,0,0,1.0227446,0,-4.1372575)" gradientUnits="userSpaceOnUse" fill="#ffffff"/>
    <radialGradient inkscape:collect="always" xlink:href="#linearGradient678" id="radialGradient625-3-1-4-9-6" cx="133.35986" cy="179.87953" fx="133.35986" fy="179.87953" r="0.95559502" gradientUnits="userSpaceOnUse" gradientTransform="translate(-3.0899124,0.39668761)" fill="#ffffff"/>
    <radialGradient inkscape:collect="always" xlink:href="#linearGradient678" id="radialGradient625-2-6-3-8-8" cx="133.35986" cy="179.87953" fx="133.35986" fy="179.87953" r="0.95559502" gradientUnits="userSpaceOnUse" gradientTransform="translate(-7.9891235,0.83142316)" fill="#ffffff"/>
    <radialGradient inkscape:collect="always" xlink:href="#linearGradient678" id="radialGradient625-5-0-7-2-9" cx="133.35986" cy="179.87953" fx="133.35986" fy="179.87953" r="0.95559502" gradientUnits="userSpaceOnUse" gradientTransform="translate(-5.9698341,3.0818546)" fill="#ffffff"/>
    <radialGradient inkscape:collect="always" xlink:href="#linearGradient678" id="radialGradient625-6-4-9-5-9" cx="133.35986" cy="179.87953" fx="133.35986" fy="179.87953" r="0.95559502" gradientUnits="userSpaceOnUse" gradientTransform="translate(-5.7052508,6.2263596)" fill="#ffffff"/>
    <radialGradient inkscape:collect="always" xlink:href="#linearGradient678" id="radialGradient625-0-1-9-2-2" cx="133.35986" cy="179.87953" fx="133.35986" fy="179.87953" r="0.95559502" gradientUnits="userSpaceOnUse" gradientTransform="translate(-7.1983196,7.9328932)" fill="#ffffff"/>
    <radialGradient inkscape:collect="always" xlink:href="#linearGradient678" id="radialGradient625-4-2-4-7-1" cx="133.35986" cy="179.87953" fx="133.35986" fy="179.87953" r="0.95559502" gradientUnits="userSpaceOnUse" gradientTransform="translate(-9.6100646,8.0637118)" fill="#ffffff"/>
    <radialGradient inkscape:collect="always" xlink:href="#linearGradient678" id="radialGradient625-9-8-6-51-7" cx="133.35986" cy="179.87953" fx="133.35986" fy="179.87953" r="0.95559502" gradientUnits="userSpaceOnUse" gradientTransform="translate(-12.81556,4.1618442)" fill="#ffffff"/>
    <radialGradient inkscape:collect="always" xlink:href="#linearGradient678" id="radialGradient625-43-5-3-0-2" cx="133.35986" cy="179.87953" fx="133.35986" fy="179.87953" r="0.95559502" gradientUnits="userSpaceOnUse" gradientTransform="translate(-12.851947,6.8165163)" fill="#ffffff"/>
    <radialGradient inkscape:collect="always" xlink:href="#linearGradient678" id="radialGradient625-41-7-4-3-5" cx="133.35986" cy="179.87953" fx="133.35986" fy="179.87953" r="0.95559502" gradientUnits="userSpaceOnUse" gradientTransform="translate(-11.10608,10.751825)" fill="#ffffff"/>
    <radialGradient inkscape:collect="always" xlink:href="#linearGradient678" id="radialGradient625-09-7-2-4-8" cx="133.35986" cy="179.87953" fx="133.35986" fy="179.87953" r="0.95559502" gradientUnits="userSpaceOnUse" gradientTransform="translate(0.08508761,7.5984813)" fill="#ffffff"/>
    <radialGradient inkscape:collect="always" xlink:href="#linearGradient678" id="radialGradient625-92-2-4-5-6" cx="133.35986" cy="179.87953" fx="133.35986" fy="179.87953" r="0.95559502" gradientUnits="userSpaceOnUse" gradientTransform="translate(0.97032251,12.297046)" fill="#ffffff"/>
    <radialGradient inkscape:collect="always" xlink:href="#linearGradient678" id="radialGradient625-93-0-2-6-5" cx="133.35986" cy="179.87953" fx="133.35986" fy="179.87953" r="0.95559502" gradientUnits="userSpaceOnUse" gradientTransform="translate(-0.51390769,16.268741)" fill="#ffffff"/>
    <radialGradient inkscape:collect="always" xlink:href="#linearGradient678" id="radialGradient625-49-5-5-4-7" cx="133.35986" cy="179.87953" fx="133.35986" fy="179.87953" r="0.95559502" gradientUnits="userSpaceOnUse" gradientTransform="translate(-5.1731379,21.028295)" fill="#ffffff"/>
    <radialGradient inkscape:collect="always" xlink:href="#linearGradient678" id="radialGradient610-6-5-3-0-1" cx="122.34656" cy="179.317" fx="122.34656" fy="179.317" r="1.4483449" gradientTransform="matrix(1,0,0,1.0000035,2.300236,5.8577804)" gradientUnits="userSpaceOnUse" fill="#ffffff"/>
    <radialGradient inkscape:collect="always" xlink:href="#linearGradient678" id="radialGradient610-5-4-2-9-0" cx="122.34656" cy="179.317" fx="122.34656" fy="179.317" r="1.4483449" gradientTransform="matrix(1,0,0,1.0000035,7.0686284,13.561192)" gradientUnits="userSpaceOnUse" fill="#ffffff"/>
    <radialGradient inkscape:collect="always" xlink:href="#linearGradient678" id="radialGradient610-8-3-1-7-1" cx="122.34656" cy="179.317" fx="122.34656" fy="179.317" r="1.4483449" gradientTransform="matrix(1,0,0,1.0000035,11.649191,19.598436)" gradientUnits="userSpaceOnUse" fill="#ffffff"/>
    <radialGradient inkscape:collect="always" xlink:href="#linearGradient678" id="radialGradient610-68-2-0-6-6" cx="122.34656" cy="179.317" fx="122.34656" fy="179.317" r="1.4483449" gradientTransform="matrix(1,0,0,1.0000035,11.88328,3.8443836)" gradientUnits="userSpaceOnUse" fill="#ffffff"/>
    <radialGradient inkscape:collect="always" xlink:href="#linearGradient678" id="radialGradient610-99-5-1-22-6" cx="122.34656" cy="179.317" fx="122.34656" fy="179.317" r="1.4483449" gradientTransform="matrix(1,0,0,1.0000035,15.036624,5.2804414)" gradientUnits="userSpaceOnUse" fill="#ffffff"/>
    <radialGradient inkscape:collect="always" xlink:href="#linearGradient678" id="radialGradient664-5-3-5-6-2" cx="136.70396" cy="180.0791" fx="136.70396" fy="180.0791" r="1.726765" gradientUnits="userSpaceOnUse" gradientTransform="translate(-6.2775814,18.603886)" fill="#ffffff"/>
  </defs>
  <g inkscape:label="Ebene 1" inkscape:groupmode="layer" id="layer1" transform="translate(-37.811318,-197.50306)">
    <g id="g680-3-3-6-0" transform="matrix(0.63473902,0.63077956,-0.63077956,0.63473902,178.8312,6.8526376)" clip-path="url(#clipPath680-6-9-0)" inkscape:export-filename="Einzellogo_OhneUnterschrift_V2.svg" inkscape:export-xdpi="96" inkscape:export-ydpi="96">
      <path id="path2-8-0-5-4-4-4-6-5" style="opacity:0.97479;fill:url(#radialGradient610-4-6-1-2-8);fill-opacity:1;stroke:#ffffff;stroke-width:0.5;stroke-linecap:round" d="m 136.72651,195.03481 a 1.1983476,1.1983477 0 0 1 -1.19835,1.19835 1.1983476,1.1983477 0 0 1 -1.19834,-1.19835 1.1983476,1.1983477 0 0 1 1.19834,-1.19835 1.1983476,1.1983477 0 0 1 1.19835,1.19835 z"/>
      <path id="path2-7-3-5-5-7-6" style="opacity:0.97479;fill:url(#radialGradient630-9-2-8-6);fill-opacity:1;stroke:#ffffff;stroke-width:0.5;stroke-linecap:round" d="m 132.3376,189.23115 a 1.4767666,1.4767647 0 0 1 -1.47677,1.47676 1.4767666,1.4767647 0 0 1 -1.47677,-1.47676 1.4767666,1.4767647 0 0 1 1.47677,-1.47677 1.4767666,1.4767647 0 0 1 1.47677,1.47677 z"/>
      <path id="path2-1-6-09-18-1-5-5" style="opacity:0.97479;fill:url(#radialGradient625-98-3-1-2);fill-opacity:1;stroke:#ffffff;stroke-width:0.5;stroke-linecap:round" d="m 134.06547,179.87952 a 0.70559621,0.70559621 0 0 1 -0.70559,0.7056 0.70559621,0.70559621 0 0 1 -0.7056,-0.7056 0.70559621,0.70559621 0 0 1 0.7056,-0.70559 0.70559621,0.70559621 0 0 1 0.70559,0.70559 z"/>
      <path id="path2-1-6-09-24-7-4-1-6" style="opacity:0.97479;fill:url(#radialGradient625-8-1-2-8-1);fill-opacity:1;stroke:#ffffff;stroke-width:0.5;stroke-linecap:round" d="m 132.98307,193.73651 a 0.70559621,0.70559621 0 0 1 -0.70559,0.7056 0.70559621,0.70559621 0 0 1 -0.7056,-0.7056 0.70559621,0.70559621 0 0 1 0.7056,-0.70559 0.70559621,0.70559621 0 0 1 0.70559,0.70559 z"/>
      <path id="path2-8-0-5-3-5-9-0-9" style="opacity:0.97479;fill:url(#radialGradient610-9-4-0-93-3);fill-opacity:1;stroke:#ffffff;stroke-width:0.5;stroke-linecap:round" d="m 126.93899,191.21956 a 1.1983476,1.1983477 0 0 1 -1.19835,1.19835 1.1983476,1.1983477 0 0 1 -1.19834,-1.19835 1.1983476,1.1983477 0 0 1 1.19834,-1.19835 1.1983476,1.1983477 0 0 1 1.19835,1.19835 z"/>
      <path id="path2-7-1-99-1-4-78-5" style="opacity:0.97479;fill:url(#radialGradient614-9-2-3-7);fill-opacity:1;stroke:#ffffff;stroke-width:0.5;stroke-linecap:round" d="m 128.80107,178.35497 a 1.4767666,1.4767647 0 0 1 -1.47676,1.47677 1.4767666,1.4767647 0 0 1 -1.47677,-1.47677 1.4767666,1.4767647 0 0 1 1.47677,-1.47676 1.4767666,1.4767647 0 0 1 1.47676,1.47676 z"/>
      <path id="path2-7-1-6-90-1-5-9-4" style="opacity:0.97479;fill:url(#radialGradient664-6-9-8-8);fill-opacity:1;stroke:#ffffff;stroke-width:0.5;stroke-linecap:round" d="m 138.18072,180.07909 a 1.4767666,1.4767647 0 0 1 -1.47677,1.47677 1.4767666,1.4767647 0 0 1 -1.47676,-1.47677 1.4767666,1.4767647 0 0 1 1.47676,-1.47676 1.4767666,1.4767647 0 0 1 1.47677,1.47676 z"/>
      <path id="path2-8-0-5-6-7-66-4" style="opacity:0.97479;fill:url(#radialGradient610-1-1-3-4);fill-opacity:1;stroke:#ffffff;stroke-width:0.5;stroke-linecap:round" d="m 123.54491,179.317 a 1.1983476,1.1983477 0 0 1 -1.19835,1.19835 1.1983476,1.1983477 0 0 1 -1.19834,-1.19835 1.1983476,1.1983477 0 0 1 1.19834,-1.19835 1.1983476,1.1983477 0 0 1 1.19835,1.19835 z"/>
      <path id="path2-2-0-1-6-7-0" style="opacity:0.97479;fill:url(#radialGradient609-3-1-3-6);fill-opacity:1;stroke:#ffffff;stroke-width:0.5;stroke-linecap:round" d="m 133.34755,177.11628 a 1.1983476,1.1983477 0 0 1 -1.19835,1.19835 1.1983476,1.1983477 0 0 1 -1.19835,-1.19835 1.1983476,1.1983477 0 0 1 1.19835,-1.19835 1.1983476,1.1983477 0 0 1 1.19835,1.19835 z"/>
      <path id="path2-7-9-5-1-2-1-6" style="opacity:0.97479;fill:url(#radialGradient608-3-8-0-4);fill-opacity:1;stroke:#ffffff;stroke-width:0.5;stroke-linecap:round" d="m 137.87646,188.37555 a 1.4767666,1.4767647 0 0 1 -1.47677,1.47676 1.4767666,1.4767647 0 0 1 -1.47676,-1.47676 1.4767666,1.4767647 0 0 1 1.47676,-1.47677 1.4767666,1.4767647 0 0 1 1.47677,1.47677 z"/>
      <path style="opacity:0.97479;fill:url(#radialGradient604-9-8-0-3);fill-opacity:1;stroke:#ffffff;stroke-width:0.5;stroke-linecap:round;stroke-dasharray:none" d="m 132.03474,190.12385 1.61172,1.41108" id="path5-72-0-0-9-4"/>
      <path style="opacity:0.97479;fill:url(#radialGradient603-3-9-27-7);fill-opacity:1;stroke:#ffffff;stroke-width:0.5;stroke-linecap:round;stroke-dasharray:none" d="m 129.32636,189.92829 c -2.39966,0.79784 -2.36849,0.82535 -2.36849,0.82535" id="path6-3-0-1-5-4"/>
      <path style="opacity:0.97479;fill:url(#radialGradient602-0-7-2-1);fill-opacity:1;stroke:#ffffff;stroke-width:0.5;stroke-linecap:round;stroke-dasharray:none" d="m 133.79319,192.61898 -0.76818,0.56754" id="path7-2-7-1-92-2" sodipodi:nodetypes="cc"/>
      <path style="opacity:0.97479;fill:url(#radialGradient601-1-8-59-8);fill-opacity:1;stroke:#ffffff;stroke-width:0.5;stroke-linecap:round;stroke-dasharray:none" d="m 136.28636,189.89715 -0.57113,3.77065 v 0 0" id="path8-7-3-3-0-5" sodipodi:nodetypes="cccc"/>
      <path style="opacity:0.97479;fill:url(#radialGradient600-4-7-6-6);fill-opacity:1;stroke:#ffffff;stroke-width:0.5;stroke-linecap:round;stroke-dasharray:none" d="m 135.98407,189.79272 c -1.10356,1.73894 -1.10356,1.73894 -1.10356,1.73894" id="path9-4-3-6-79-9"/>
      <path style="opacity:0.97479;fill:url(#radialGradient599-8-6-4-7);fill-opacity:1;stroke:#ffffff;stroke-width:0.5;stroke-linecap:round;stroke-dasharray:none" d="m 130.93483,180.52988 2.47389,1.77163" id="path10-3-4-2-0-2" sodipodi:nodetypes="cc"/>
      <path style="opacity:0.97479;fill:url(#radialGradient598-9-9-11-8);fill-opacity:1;stroke:#ffffff;stroke-width:0.5;stroke-linecap:round;stroke-dasharray:none" d="m 133.57631,184.24148 -1.93959,3.67853" id="path11-3-1-0-2-1"/>
      <path style="opacity:0.97479;fill:url(#radialGradient597-0-3-4-2);fill-opacity:1;stroke:#ffffff;stroke-width:0.5;stroke-linecap:round;stroke-dasharray:none" d="m 127.92474,179.76036 2.44121,7.92556" id="path12-6-8-8-7-7" sodipodi:nodetypes="cc"/>
      <path style="opacity:0.97479;fill:url(#radialGradient596-0-2-7-3);fill-opacity:1;stroke:#ffffff;stroke-width:0.5;stroke-linecap:round;stroke-dasharray:none" d="m 126.65398,183.57266 -0.86947,0.76914" id="path13-434-2-8-9-8"/>
      <path style="opacity:0.97479;fill:url(#radialGradient595-7-2-7-2);fill-opacity:1;stroke:#ffffff;stroke-width:0.5;stroke-linecap:round;stroke-dasharray:none" d="m 121.0159,187.43187 3.9191,2.94931" id="path14-0-0-0-6-8" sodipodi:nodetypes="cc"/>
      <path style="opacity:0.97479;fill:url(#radialGradient594-2-5-6-8);fill-opacity:1;stroke:#ffffff;stroke-width:0.5;stroke-linecap:round;stroke-dasharray:none" d="m 121.24964,184.18772 2.3815,0.54225" id="path15-3-6-2-1-2"/>
      <path style="opacity:0.97479;fill:url(#radialGradient593-0-6-54-7);fill-opacity:1;stroke:#ffffff;stroke-width:0.5;stroke-linecap:round;stroke-dasharray:none" d="m 122.84168,180.46262 1.40453,3.64509" id="path16-23-9-6-2-4"/>
      <path style="opacity:0.97479;fill:url(#radialGradient592-5-3-7-1);fill-opacity:1;stroke:#ffffff;stroke-width:0.5;stroke-linecap:round;stroke-dasharray:none" d="m 123.51051,178.92433 2.34088,-0.4013" id="path17-1-3-5-8-0"/>
      <path style="opacity:0.97479;fill:url(#radialGradient591-9-1-3-0);fill-opacity:1;stroke:#ffffff;stroke-width:0.5;stroke-linecap:round;stroke-dasharray:none" d="m 128.95567,177.89341 1.9511,-0.44625" id="path18-6-6-4-3-7"/>
      <path style="opacity:0.97479;fill:url(#radialGradient590-9-0-3-1);fill-opacity:1;stroke:#ffffff;stroke-width:0.5;stroke-linecap:round;stroke-dasharray:none" d="m 126.1858,177.28571 -1.57174,-1.17044" id="path19-4-4-3-2-3" sodipodi:nodetypes="cc"/>
      <path style="opacity:0.97479;fill:url(#radialGradient589-0-5-9-1);fill-opacity:1;stroke:#ffffff;stroke-width:0.5;stroke-linecap:round;stroke-dasharray:none" d="m 127.35624,176.85097 0.13377,-2.24056" id="path20-19-0-4-1-7" sodipodi:nodetypes="cc"/>
      <path style="opacity:0.97479;fill:url(#radialGradient588-7-4-2-8);fill-opacity:1;stroke:#ffffff;stroke-width:0.5;stroke-linecap:round;stroke-dasharray:none" d="m 129.93121,191.76575 0.36786,-1.10356" id="path21-2-9-4-2-0" sodipodi:nodetypes="cc"/>
      <path style="opacity:0.97479;fill:url(#radialGradient587-4-0-2-1);fill-opacity:1;stroke:#ffffff;stroke-width:0.5;stroke-linecap:round;stroke-dasharray:none" d="m 133.07469,179.12497 c -0.10764,-0.36967 -0.28511,-0.56582 -0.4013,-0.90291" id="path22-1-4-5-6-7" sodipodi:nodetypes="cc"/>
      <path style="opacity:0.97479;fill:url(#radialGradient586-2-1-0-3);fill-opacity:1;stroke:#ffffff;stroke-width:0.5;stroke-linecap:round;stroke-dasharray:none" d="m 130.63348,179.45939 0.80259,-1.33765" id="path23-24-9-7-8-5"/>
      <path style="opacity:0.97479;fill:url(#radialGradient585-3-2-7-4);fill-opacity:1;stroke:#ffffff;stroke-width:0.5;stroke-linecap:round;stroke-dasharray:none" d="m 134.11136,186.95021 2.20712,-1.80582" id="path24-3-2-0-1-7"/>
      <path style="opacity:0.97479;fill:url(#radialGradient584-0-0-6-7);fill-opacity:1;stroke:#ffffff;stroke-width:0.5;stroke-linecap:round;stroke-dasharray:none" d="m 135.98407,186.95021 -1.23732,-2.67529" id="path25-9-5-3-1-9"/>
      <path style="opacity:0.97479;fill:url(#radialGradient583-2-5-4-2);fill-opacity:1;stroke:#ffffff;stroke-width:0.5;stroke-linecap:round;stroke-dasharray:none" d="m 126.11892,188.7226 -0.13377,1.23732" id="path26-0-5-9-4-2" sodipodi:nodetypes="cc"/>
      <path style="opacity:0.97479;fill:url(#radialGradient582-9-7-1-7);fill-opacity:1;stroke:#ffffff;stroke-width:0.499999;stroke-linecap:round;stroke-dasharray:none" d="m 124.079,187.1843 0.33442,-0.76915 v 0" id="path27-0-6-9-6-8"/>
      <path style="opacity:0.97479;fill:url(#radialGradient581-8-5-1-6);fill-opacity:1;stroke:#ffffff;stroke-width:0.499999;stroke-linecap:round;stroke-dasharray:none" d="m 122.03909,189.99336 -1.20388,-2.47465" id="path28-40-4-0-5-2" sodipodi:nodetypes="cc"/>
      <path style="opacity:0.97479;fill:url(#radialGradient580-5-8-9-5);fill-opacity:1;stroke:#ffffff;stroke-width:0.499999;stroke-linecap:round;stroke-dasharray:none" d="m 128.52668,185.81321 4.61489,-1.97303" id="path29-53-9-1-6-4" sodipodi:nodetypes="cc"/>
      <path style="opacity:0.97479;fill:url(#radialGradient579-4-8-7-7);fill-opacity:1;stroke:#ffffff;stroke-width:0.499999;stroke-linecap:round;stroke-dasharray:none" d="m 133.44254,177.62012 2.14024,1.47141" id="path30-3-7-8-34-5"/>
      <path style="opacity:0.97479;fill:url(#radialGradient578-9-2-1-8);fill-opacity:1;stroke:#ffffff;stroke-width:0.499999;stroke-linecap:round;stroke-dasharray:none" d="m 137.28828,183.2048 -0.26753,-1.67206" id="path31-6-8-3-6-9" sodipodi:nodetypes="cc"/>
      <path style="opacity:0.97479;fill:url(#radialGradient577-1-3-8-3);fill-opacity:1;stroke:#ffffff;stroke-width:0.499999;stroke-linecap:round;stroke-dasharray:none" d="m 133.20845,196.98258 0.26753,0.70226" id="path32-4-9-1-2-3" sodipodi:nodetypes="cc"/>
      <path style="opacity:0.97479;fill:url(#radialGradient576-5-0-7-9);fill-opacity:1;stroke:#ffffff;stroke-width:0.499999;stroke-linecap:round;stroke-dasharray:none" d="m 133.57631,195.91246 0.86947,-0.36785" id="path33-3-1-1-7-7"/>
      <path style="opacity:0.97479;fill:url(#radialGradient575-2-0-8-0);fill-opacity:1;stroke:#ffffff;stroke-width:0.499999;stroke-linecap:round;stroke-dasharray:none" d="m 131.56983,197.68484 0.80259,-0.96979" id="path34-9-3-9-2-9"/>
      <path style="opacity:0.97479;fill:url(#radialGradient574-5-4-0-2);fill-opacity:1;stroke:#ffffff;stroke-width:0.499999;stroke-linecap:round;stroke-dasharray:none" d="m 128.8611,200.22638 0.53506,-0.43474" id="path35-8-1-9-3-3" sodipodi:nodetypes="cc"/>
      <path style="opacity:0.97479;fill:url(#radialGradient573-6-1-4-9);fill-opacity:1;stroke:#ffffff;stroke-width:0.499999;stroke-linecap:round;stroke-dasharray:none" d="m 125.98515,181.39898 0.9698,1.00323" id="path36-2-8-1-5-8" sodipodi:nodetypes="cc"/>
      <path id="path2-1-6-09-5-0-2-4-0" style="opacity:0.97479;fill:url(#radialGradient625-3-1-4-9-6);fill-opacity:1;stroke:#ffffff;stroke-width:0.5;stroke-linecap:round" d="m 130.97556,180.27621 a 0.70559621,0.70559621 0 0 1 -0.70559,0.7056 0.70559621,0.70559621 0 0 1 -0.7056,-0.7056 0.70559621,0.70559621 0 0 1 0.7056,-0.70559 0.70559621,0.70559621 0 0 1 0.70559,0.70559 z"/>
      <path id="path2-1-6-09-4-0-7-0-9" style="opacity:0.97479;fill:url(#radialGradient625-2-6-3-8-8);fill-opacity:1;stroke:#ffffff;stroke-width:0.5;stroke-linecap:round" d="m 126.07634,180.71094 a 0.70559621,0.70559621 0 0 1 -0.70559,0.7056 0.70559621,0.70559621 0 0 1 -0.7056,-0.7056 0.70559621,0.70559621 0 0 1 0.7056,-0.70559 0.70559621,0.70559621 0 0 1 0.70559,0.70559 z"/>
      <path id="path2-1-6-09-0-6-5-6-4" style="opacity:0.97479;fill:url(#radialGradient625-5-0-7-2-9);fill-opacity:1;stroke:#ffffff;stroke-width:0.5;stroke-linecap:round" d="m 128.09564,182.96138 a 0.70559621,0.70559621 0 0 1 -0.70559,0.7056 0.70559621,0.70559621 0 0 1 -0.7056,-0.7056 0.70559621,0.70559621 0 0 1 0.7056,-0.70559 0.70559621,0.70559621 0 0 1 0.70559,0.70559 z"/>
      <path id="path2-1-6-09-2-7-1-0-5" style="opacity:0.97479;fill:url(#radialGradient625-6-4-9-5-9);fill-opacity:1;stroke:#ffffff;stroke-width:0.5;stroke-linecap:round" d="m 128.36022,186.10588 a 0.70559621,0.70559621 0 0 1 -0.70559,0.7056 0.70559621,0.70559621 0 0 1 -0.7056,-0.7056 0.70559621,0.70559621 0 0 1 0.7056,-0.70559 0.70559621,0.70559621 0 0 1 0.70559,0.70559 z"/>
      <path id="path2-1-6-09-3-9-0-8-1" style="opacity:0.97479;fill:url(#radialGradient625-0-1-9-2-2);fill-opacity:1;stroke:#ffffff;stroke-width:0.5;stroke-linecap:round" d="m 126.86715,187.81241 a 0.70559621,0.70559621 0 0 1 -0.70559,0.7056 0.70559621,0.70559621 0 0 1 -0.7056,-0.7056 0.70559621,0.70559621 0 0 1 0.7056,-0.70559 0.70559621,0.70559621 0 0 1 0.70559,0.70559 z"/>
      <path id="path2-1-6-09-6-5-0-6-0" style="opacity:0.97479;fill:url(#radialGradient625-4-2-4-7-1);fill-opacity:1;stroke:#ffffff;stroke-width:0.5;stroke-linecap:round" d="m 124.4554,187.94323 a 0.70559621,0.70559621 0 0 1 -0.70559,0.7056 0.70559621,0.70559621 0 0 1 -0.7056,-0.7056 0.70559621,0.70559621 0 0 1 0.7056,-0.70559 0.70559621,0.70559621 0 0 1 0.70559,0.70559 z"/>
      <path id="path2-1-6-09-1-6-8-2-9" style="opacity:0.97479;fill:url(#radialGradient625-9-8-6-51-7);fill-opacity:1;stroke:#ffffff;stroke-width:0.5;stroke-linecap:round" d="m 121.24991,184.04136 a 0.70559621,0.70559621 0 0 1 -0.70559,0.7056 0.70559621,0.70559621 0 0 1 -0.7056,-0.7056 0.70559621,0.70559621 0 0 1 0.7056,-0.70559 0.70559621,0.70559621 0 0 1 0.70559,0.70559 z"/>
      <path id="path2-1-6-09-25-8-7-8-7" style="opacity:0.97479;fill:url(#radialGradient625-43-5-3-0-2);fill-opacity:1;stroke:#ffffff;stroke-width:0.5;stroke-linecap:round" d="m 121.21352,186.69604 a 0.70559621,0.70559621 0 0 1 -0.70559,0.7056 0.70559621,0.70559621 0 0 1 -0.7056,-0.7056 0.70559621,0.70559621 0 0 1 0.7056,-0.70559 0.70559621,0.70559621 0 0 1 0.70559,0.70559 z"/>
      <path id="path2-1-6-09-10-4-9-0-8" style="opacity:0.97479;fill:url(#radialGradient625-41-7-4-3-5);fill-opacity:1;stroke:#ffffff;stroke-width:0.5;stroke-linecap:round" d="m 122.95939,190.63135 a 0.70559621,0.70559621 0 0 1 -0.70559,0.7056 0.70559621,0.70559621 0 0 1 -0.7056,-0.7056 0.70559621,0.70559621 0 0 1 0.7056,-0.70559 0.70559621,0.70559621 0 0 1 0.70559,0.70559 z"/>
      <path id="path2-1-6-09-9-2-4-3-0" style="opacity:0.97479;fill:url(#radialGradient625-09-7-2-4-8);fill-opacity:1;stroke:#ffffff;stroke-width:0.5;stroke-linecap:round" d="m 134.15056,187.478 a 0.70559621,0.70559621 0 0 1 -0.70559,0.7056 0.70559621,0.70559621 0 0 1 -0.7056,-0.7056 0.70559621,0.70559621 0 0 1 0.7056,-0.70559 0.70559621,0.70559621 0 0 1 0.70559,0.70559 z"/>
      <path id="path2-1-6-09-45-4-5-91-2" style="opacity:0.97479;fill:url(#radialGradient625-92-2-4-5-6);fill-opacity:1;stroke:#ffffff;stroke-width:0.5;stroke-linecap:round" d="m 135.0358,192.17657 a 0.70559621,0.70559621 0 0 1 -0.70559,0.7056 0.70559621,0.70559621 0 0 1 -0.7056,-0.7056 0.70559621,0.70559621 0 0 1 0.7056,-0.70559 0.70559621,0.70559621 0 0 1 0.70559,0.70559 z"/>
      <path id="path2-1-6-09-33-8-2-02-7" style="opacity:0.97479;fill:url(#radialGradient625-93-0-2-6-5);fill-opacity:1;stroke:#ffffff;stroke-width:0.5;stroke-linecap:round" d="m 133.55157,196.14826 a 0.70559621,0.70559621 0 0 1 -0.70559,0.7056 0.70559621,0.70559621 0 0 1 -0.7056,-0.7056 0.70559621,0.70559621 0 0 1 0.7056,-0.70559 0.70559621,0.70559621 0 0 1 0.70559,0.70559 z"/>
      <path id="path2-1-6-09-7-1-5-6-9" style="opacity:0.97479;fill:url(#radialGradient625-49-5-5-4-7);fill-opacity:1;stroke:#ffffff;stroke-width:0.5;stroke-linecap:round" d="m 128.89233,200.90782 a 0.70559621,0.70559621 0 0 1 -0.70559,0.7056 0.70559621,0.70559621 0 0 1 -0.7056,-0.7056 0.70559621,0.70559621 0 0 1 0.7056,-0.70559 0.70559621,0.70559621 0 0 1 0.70559,0.70559 z"/>
      <path id="path2-8-0-5-0-6-3-4-7" style="opacity:0.97479;fill:url(#radialGradient610-6-5-3-0-1);fill-opacity:1;stroke:#ffffff;stroke-width:0.5;stroke-linecap:round" d="m 125.84515,185.1754 a 1.1983476,1.1983477 0 0 1 -1.19835,1.19835 1.1983476,1.1983477 0 0 1 -1.19834,-1.19835 1.1983476,1.1983477 0 0 1 1.19834,-1.19835 1.1983476,1.1983477 0 0 1 1.19835,1.19835 z"/>
      <path id="path2-8-0-5-1-7-1-8-7" style="opacity:0.97479;fill:url(#radialGradient610-5-4-2-9-0);fill-opacity:1;stroke:#ffffff;stroke-width:0.5;stroke-linecap:round" d="m 130.61354,192.87881 a 1.1983476,1.1983477 0 0 1 -1.19835,1.19835 1.1983476,1.1983477 0 0 1 -1.19834,-1.19835 1.1983476,1.1983477 0 0 1 1.19834,-1.19835 1.1983476,1.1983477 0 0 1 1.19835,1.19835 z"/>
      <path id="path2-8-0-5-5-2-2-5-9" style="opacity:0.97479;fill:url(#radialGradient610-8-3-1-7-1);fill-opacity:1;stroke:#ffffff;stroke-width:0.5;stroke-linecap:round" d="m 135.1941,198.91606 a 1.1983476,1.1983477 0 0 1 -1.19835,1.19835 1.1983476,1.1983477 0 0 1 -1.19834,-1.19835 1.1983476,1.1983477 0 0 1 1.19834,-1.19835 1.1983476,1.1983477 0 0 1 1.19835,1.19835 z"/>
      <path id="path2-8-0-5-09-6-8-31-0" style="opacity:0.97479;fill:url(#radialGradient610-68-2-0-6-6);fill-opacity:1;stroke:#ffffff;stroke-width:0.5;stroke-linecap:round" d="m 135.42819,183.16201 a 1.1983476,1.1983477 0 0 1 -1.19835,1.19835 1.1983476,1.1983477 0 0 1 -1.19834,-1.19835 1.1983476,1.1983477 0 0 1 1.19834,-1.19835 1.1983476,1.1983477 0 0 1 1.19835,1.19835 z"/>
      <path id="path2-8-0-5-10-5-5-2-3" style="opacity:0.97479;fill:url(#radialGradient610-99-5-1-22-6);fill-opacity:1;stroke:#ffffff;stroke-width:0.5;stroke-linecap:round" d="m 138.58154,184.59806 a 1.1983476,1.1983477 0 0 1 -1.19835,1.19835 1.1983476,1.1983477 0 0 1 -1.19834,-1.19835 1.1983476,1.1983477 0 0 1 1.19834,-1.19835 1.1983476,1.1983477 0 0 1 1.19835,1.19835 z"/>
      <path id="path2-7-1-6-90-9-2-0-7-4" style="opacity:0.97479;fill:url(#radialGradient664-5-3-5-6-2);fill-opacity:1;stroke:#ffffff;stroke-width:0.5;stroke-linecap:round" d="m 131.90314,198.68297 a 1.4767666,1.4767647 0 0 1 -1.47677,1.47677 1.4767666,1.4767647 0 0 1 -1.47676,-1.47677 1.4767666,1.4767647 0 0 1 1.47676,-1.47676 1.4767666,1.4767647 0 0 1 1.47677,1.47676 z"/>
    </g>
    <text xml:space="preserve" style="font-size:21.1667px;opacity:0.97479;fill:#004aac;stroke:none;stroke-width:0.499999;stroke-linecap:round" x="36.117981" y="212.6019" id="text1-3-4"><tspan sodipodi:role="line" id="tspan1-4-5" style="font-style:normal;font-variant:normal;font-weight:normal;font-stretch:normal;font-size:21.1667px;font-family:Raleway;-inkscape-font-specification:'Raleway, @wght=600';font-variant-ligatures:normal;font-variant-caps:normal;font-variant-numeric:normal;font-variant-east-asian:normal;font-variation-settings:'wght' 600;fill:#ffffff;stroke:none;stroke-width:0.5" x="36.117981" y="212.6019">KommMa</tspan><tspan sodipodi:role="line" style="font-style:normal;font-variant:normal;font-weight:normal;font-stretch:normal;font-size:21.1667px;font-family:Raleway;-inkscape-font-specification:'Raleway, @wght=600';font-variant-ligatures:normal;font-variant-caps:normal;font-variant-numeric:normal;font-variant-east-asian:normal;font-variation-settings:'wght' 600;fill:#ffffff;stroke:none;stroke-width:0.5" x="36.117981" y="239.06027" id="tspan2-7-0"/></text>
  </g>
</svg>